<svg width="48" height="48" viewBox="0 0 48 48" fill="none" xmlns="http://www.w3.org/2000/svg">
<g id="logo">
<g clip-path="url(#clip0_215_2)">
<rect width="48" height="48" rx="10" fill="#52C0FC"/>
<g id="Ellipse 5" filter="url(#filter0_d_215_2)">
<path d="M73.8106 64.5069C69.5224 80.5109 40.5623 72.6801 39.2243 87.3331C20.4877 134.076 11.5668 64.9818 15.8551 48.9778C20.1433 32.9738 39.0744 24.1411 52.5974 27.7646C58.7025 39.7532 80.274 48.1126 73.8106 64.5069Z" fill="#5198FC"/>
</g>
<path id="Ellipse 3" d="M39.8106 2.50691C35.5224 18.5109 6.56232 10.6801 5.22426 25.3331C-13.5123 72.0765 -22.4332 2.98175 -18.1449 -13.0222C-13.8567 -29.0262 5.07444 -37.8589 18.5974 -34.2354C24.7025 -22.2468 46.274 -13.8874 39.8106 2.50691Z" fill="#9DDDFC"/>
<g id="NPK" filter="url(#filter1_d_215_2)">
<path d="M2.69824 32V16.6387H5.54492L13.6553 27.832V16.6387H16.3945V32H13.5479L5.4375 20.5703V32H2.69824ZM19.6279 32V16.6387H26.5029C29.6396 16.6387 31.208 18.0817 31.208 20.9678C31.208 24.0973 29.0632 25.9915 24.7734 26.6504L24.3652 24.1152C26.9434 23.6497 28.2324 22.6292 28.2324 21.0537C28.2324 19.779 27.5951 19.1416 26.3203 19.1416H22.4746V32H19.6279ZM35.9453 16.6387V32H33.0986V16.6387H35.9453ZM46.752 16.6387L40.1992 23.8037L47.4395 32H43.4971L37.5566 24.8242V22.9766L43.2715 16.6387H46.752Z" fill="white"/>
</g>
</g>
</g>
<defs>
<filter id="filter0_d_215_2" x="4.79602" y="18.9569" width="80.2098" height="96.3574" filterUnits="userSpaceOnUse" color-interpolation-filters="sRGB">
<feFlood flood-opacity="0" result="BackgroundImageFix"/>
<feColorMatrix in="SourceAlpha" type="matrix" values="0 0 0 0 0 0 0 0 0 0 0 0 0 0 0 0 0 0 127 0" result="hardAlpha"/>
<feOffset dy="2"/>
<feGaussianBlur stdDeviation="5"/>
<feComposite in2="hardAlpha" operator="out"/>
<feColorMatrix type="matrix" values="0 0 0 0 0.6 0 0 0 0 0.862745 0 0 0 0 0.984314 0 0 0 1 0"/>
<feBlend mode="normal" in2="BackgroundImageFix" result="effect1_dropShadow_215_2"/>
<feBlend mode="normal" in="SourceGraphic" in2="effect1_dropShadow_215_2" result="shape"/>
</filter>
<filter id="filter1_d_215_2" x="0.698242" y="15.6387" width="48.7412" height="19.3613" filterUnits="userSpaceOnUse" color-interpolation-filters="sRGB">
<feFlood flood-opacity="0" result="BackgroundImageFix"/>
<feColorMatrix in="SourceAlpha" type="matrix" values="0 0 0 0 0 0 0 0 0 0 0 0 0 0 0 0 0 0 127 0" result="hardAlpha"/>
<feOffset dy="1"/>
<feGaussianBlur stdDeviation="1"/>
<feComposite in2="hardAlpha" operator="out"/>
<feColorMatrix type="matrix" values="0 0 0 0 0 0 0 0 0 0 0 0 0 0 0 0 0 0 0.25 0"/>
<feBlend mode="normal" in2="BackgroundImageFix" result="effect1_dropShadow_215_2"/>
<feBlend mode="normal" in="SourceGraphic" in2="effect1_dropShadow_215_2" result="shape"/>
</filter>
<clipPath id="clip0_215_2">
<rect width="48" height="48" rx="10" fill="white"/>
</clipPath>
</defs>
</svg>
