<svg width="512" height="512" viewBox="0 0 512 512" fill="none" xmlns="http://www.w3.org/2000/svg">
<g id="logo512">
<g clip-path="url(#clip0_218_10)">
<rect width="512" height="512" rx="50" fill="#52C0FC"/>
<g id="Ellipse 5" filter="url(#filter0_d_218_10)">
<path d="M707.954 515.125C678.69 624.339 426.197 556.199 421.638 657.419C282.804 973.463 173.462 488.963 202.725 379.749C231.989 270.535 390.44 218.1 508.326 249.688C566.448 335.911 755.719 404.227 707.954 515.125Z" fill="#5198FC"/>
</g>
<path id="Ellipse 3" d="M385.372 55.3051C356.97 161.305 104.473 93.1786 100.668 191.585C-35.5676 497.93 -148.259 25.9293 -119.856 -80.0705C-91.4538 -186.07 66.2987 -235.9 184.185 -204.312C242.827 -120.029 432.227 -52.1959 385.372 55.3051Z" fill="#9DDDFC"/>
<g id="NPK" filter="url(#filter1_d_218_10)">
<path d="M62.8477 325V185.352H88.7266L162.457 287.109V185.352H187.359V325H161.48L87.75 221.094V325H62.8477ZM216.754 325V185.352H279.254C307.77 185.352 322.027 198.47 322.027 224.707C322.027 253.158 302.529 270.378 263.531 276.367L259.82 253.32C283.258 249.089 294.977 239.811 294.977 225.488C294.977 213.9 289.182 208.105 277.594 208.105H242.633V325H216.754ZM365.094 185.352V325H339.215V185.352H365.094ZM463.336 185.352L403.766 250.488L469.586 325H433.746L379.742 259.766V242.969L431.695 185.352H463.336Z" fill="white"/>
</g>
</g>
</g>
<defs>
<filter id="filter0_d_218_10" x="187.954" y="232.592" width="537.648" height="542.3" filterUnits="userSpaceOnUse" color-interpolation-filters="sRGB">
<feFlood flood-opacity="0" result="BackgroundImageFix"/>
<feColorMatrix in="SourceAlpha" type="matrix" values="0 0 0 0 0 0 0 0 0 0 0 0 0 0 0 0 0 0 127 0" result="hardAlpha"/>
<feOffset dy="2"/>
<feGaussianBlur stdDeviation="5"/>
<feComposite in2="hardAlpha" operator="out"/>
<feColorMatrix type="matrix" values="0 0 0 0 0.6 0 0 0 0 0.862745 0 0 0 0 0.984314 0 0 0 1 0"/>
<feBlend mode="normal" in2="BackgroundImageFix" result="effect1_dropShadow_218_10"/>
<feBlend mode="normal" in="SourceGraphic" in2="effect1_dropShadow_218_10" result="shape"/>
</filter>
<filter id="filter1_d_218_10" x="60.8477" y="184.352" width="410.738" height="143.648" filterUnits="userSpaceOnUse" color-interpolation-filters="sRGB">
<feFlood flood-opacity="0" result="BackgroundImageFix"/>
<feColorMatrix in="SourceAlpha" type="matrix" values="0 0 0 0 0 0 0 0 0 0 0 0 0 0 0 0 0 0 127 0" result="hardAlpha"/>
<feOffset dy="1"/>
<feGaussianBlur stdDeviation="1"/>
<feComposite in2="hardAlpha" operator="out"/>
<feColorMatrix type="matrix" values="0 0 0 0 0 0 0 0 0 0 0 0 0 0 0 0 0 0 0.25 0"/>
<feBlend mode="normal" in2="BackgroundImageFix" result="effect1_dropShadow_218_10"/>
<feBlend mode="normal" in="SourceGraphic" in2="effect1_dropShadow_218_10" result="shape"/>
</filter>
<clipPath id="clip0_218_10">
<rect width="512" height="512" rx="50" fill="white"/>
</clipPath>
</defs>
</svg>
