<svg width="541" height="539" viewBox="0 0 541 539" fill="none" xmlns="http://www.w3.org/2000/svg">
<g id="Group 2">
<path id="Union" fill-rule="evenodd" clip-rule="evenodd" d="M249.203 9.78216C260.919 -1.93357 279.914 -1.93357 291.629 9.78216L341.127 59.2796C342.758 60.9108 344.162 62.683 345.339 64.5571L531.554 250.772C543.269 262.487 543.269 281.482 531.554 293.198L482.056 342.695C470.34 354.411 451.345 354.411 439.63 342.695L346.002 249.068V508.995C346.002 525.564 332.571 538.995 316.002 538.995H226.002C209.434 538.995 196.002 525.564 196.002 508.995V246.831L100.711 342.122C88.9949 353.838 70 353.838 58.2843 342.122L8.78679 292.625C-2.92893 280.909 -2.92893 261.914 8.7868 250.198L249.203 9.78216Z" fill="url(#paint0_linear_226_11)"/>
</g>
<defs>
<linearGradient id="paint0_linear_226_11" x1="270.53" y1="0.999998" x2="270.53" y2="638.574" gradientUnits="userSpaceOnUse">
<stop stop-color="#38F9D7"/>
<stop offset="1" stop-color="#43E97B"/>
</linearGradient>
</defs>
</svg>
